<?xml version="1.0" standalone="no"?>
<!DOCTYPE svg PUBLIC "-//W3C//DTD SVG 20010904//EN"
 "http://www.w3.org/TR/2001/REC-SVG-20010904/DTD/svg10.dtd">
<svg version="1.0" xmlns="http://www.w3.org/2000/svg"
 width="340.000000pt" height="340.000000pt" viewBox="0 0 340.000000 340.000000"
 preserveAspectRatio="xMidYMid meet">
<metadata>
Created by potrace 1.11, written by Peter Selinger 2001-2013
</metadata>
<g transform="translate(0.000000,340.000000) scale(0.100000,-0.100000)"
fill="#000000" stroke="none">
<path d="M2256 3336 c-21 -8 -51 -27 -68 -43 -45 -43 -89 -142 -97 -216 -1 -4
-12 0 -25 9 -30 19 -120 44 -162 44 -88 0 -175 -62 -199 -142 -16 -54 -11
-138 11 -179 14 -28 13 -29 -13 -35 -63 -16 -142 -80 -173 -141 -26 -51 -25
-132 2 -180 26 -43 94 -97 143 -113 22 -7 43 -18 47 -24 5 -8 8 -7 8 2 0 7 5
10 10 7 6 -4 35 -6 65 -6 54 0 64 -6 46 -24 -28 -31 -34 -191 -8 -232 5 -7 5
-19 1 -25 -4 -7 -4 -10 1 -6 4 4 25 -8 47 -27 21 -19 45 -35 53 -35 8 0 15 -4
15 -10 0 -5 7 -7 15 -4 22 9 19 -3 -15 -53 -16 -24 -30 -46 -30 -49 0 -5 -68
-110 -87 -134 -7 -8 -33 -43 -58 -77 -62 -83 -102 -116 -210 -168 -78 -38
-239 -100 -285 -110 -8 -2 -28 -8 -43 -14 -42 -16 -47 -14 -42 22 3 17 12 79
20 136 9 57 27 136 40 176 25 71 28 152 10 250 -6 33 -18 97 -20 105 -20 84
-82 180 -117 180 -24 0 -67 -39 -87 -79 -47 -92 -66 -200 -66 -381 0 -114 3
-139 18 -162 10 -15 15 -33 11 -39 -4 -7 -3 -9 3 -6 13 8 35 -17 64 -73 26
-52 52 -151 41 -162 -4 -4 -96 -30 -206 -58 -109 -28 -219 -60 -243 -72 -95
-45 -204 -169 -271 -308 -61 -127 -135 -392 -115 -410 4 -4 36 -14 71 -22 57
-15 62 -14 63 1 3 58 7 111 13 141 14 83 18 98 37 159 66 208 191 328 379 366
8 2 35 8 60 15 68 18 92 23 122 24 15 0 25 3 23 6 -6 9 184 62 196 55 5 -4 7
-11 4 -16 -4 -5 -1 -9 5 -9 6 0 34 -16 63 -36 28 -20 61 -40 72 -45 11 -5 38
-20 60 -34 22 -14 49 -29 60 -34 11 -5 30 -19 42 -30 13 -12 25 -21 29 -20 3
1 31 -20 62 -47 65 -58 75 -64 167 -95 39 -13 72 -26 75 -29 3 -3 13 -5 23 -6
55 -2 68 -5 64 -12 -3 -4 7 -8 21 -9 15 -1 68 -4 117 -8 144 -11 201 21 181
100 -22 89 -310 281 -523 350 -53 17 -206 19 -196 3 2 -5 -13 -9 -34 -9 -21
-1 -51 -2 -68 -3 -16 -1 -50 3 -75 7 -25 5 -50 9 -57 10 -15 0 -6 17 9 17 17
0 204 78 290 121 92 46 173 103 210 148 14 16 29 27 32 24 3 -4 6 -1 6 5 0 12
96 143 113 154 6 3 11 12 13 20 2 15 63 110 77 119 5 3 8 10 8 15 -1 15 23 64
31 64 5 0 8 8 8 17 0 11 8 6 25 -17 14 -19 32 -38 40 -43 9 -4 12 -14 9 -20
-4 -7 -4 -9 0 -5 4 3 24 1 44 -6 45 -16 116 -12 148 9 28 18 38 19 28 3 -4 -7
-3 -8 5 -4 6 4 9 11 6 16 -3 5 1 12 8 17 8 4 22 20 32 35 9 15 21 26 25 23 4
-3 7 1 6 8 0 6 5 33 13 58 l15 46 62 -29 c109 -51 239 -42 307 20 51 48 65 83
62 158 -2 77 -30 144 -84 202 -27 28 -28 34 -13 38 103 34 174 106 185 189 9
64 -9 111 -65 168 l-51 52 -1 75 c-2 107 -34 164 -114 205 -64 32 -181 15
-253 -35 -16 -12 -30 -17 -30 -11 -3 21 -4 26 -23 76 -50 133 -163 200 -270
161z"/>
<path d="M1356 1078 c3 -5 10 -6 15 -3 13 9 11 12 -6 12 -8 0 -12 -4 -9 -9z"/>
<path d="M1435 1021 c-3 -5 -2 -12 3 -15 5 -3 9 1 9 9 0 17 -3 19 -12 6z"/>
<path d="M1875 720 c-3 -5 -1 -10 4 -10 6 0 11 5 11 10 0 6 -2 10 -4 10 -3 0
-8 -4 -11 -10z"/>
<path d="M1955 720 c3 -5 8 -10 11 -10 2 0 4 5 4 10 0 6 -5 10 -11 10 -5 0 -7
-4 -4 -10z"/>
<path d="M2066 678 c3 -5 10 -6 15 -3 13 9 11 12 -6 12 -8 0 -12 -4 -9 -9z"/>
</g>
</svg>
